<svg xmlns="http://www.w3.org/2000/svg" xmlns:xlink="http://www.w3.org/1999/xlink" viewBox="0 0 927.45 987.94"><defs><style>.cls-1,.cls-14,.cls-6{fill:none;}.cls-2{fill:#fabc3b;}.cls-3{fill:#ca942f;}.cls-4{fill:#aeb0af;}.cls-5{fill:#707070;}.cls-6{stroke:#000206;}.cls-10,.cls-14,.cls-6{stroke-miterlimit:10;}.cls-7{font-size:33.85px;font-family:MyriadPro-Regular, Myriad Pro;}.cls-10,.cls-8{fill:#fff;}.cls-9{fill:#f03335;}.cls-10{stroke:#ca942f;}.cls-10,.cls-14{stroke-width:2px;}.cls-11{fill:#434345;}.cls-12{fill:#8c8e90;}.cls-13{fill:#000206;}.cls-14{stroke:#fff;}.cls-15{font-size:32px;font-family:PTSerif-BoldItalic, PT Serif;font-weight:700;font-style:italic;}.cls-16{letter-spacing:-0.04em;}.cls-17{letter-spacing:-0.04em;}.cls-18{letter-spacing:0em;}.cls-19{clip-path:url(#clip-path);}.cls-20{clip-path:url(#clip-path-2);}.cls-21{opacity:0.87;}.cls-22{opacity:0.79;}.cls-23{fill:#008ccf;}</style><clipPath id="clip-path"><rect class="cls-1" x="55.93" y="613.8" width="813.98" height="227.82"/></clipPath><clipPath id="clip-path-2"><rect class="cls-1" x="7.12" y="883.7" width="920.33" height="104.24"/></clipPath><image id="image" width="762" height="222" xlink:href="antotech-logo-pagina_4.png"/></defs><title>antotechlogo</title><g id="Layer_4" data-name="Layer 4"><path class="cls-2" d="M327.8,212.95c-22.21,0-40.22,18.74-40.22,41.86a43,43,0,0,0,5.1,20.37h0s-48.5,61.62,14.13,113.63h16.45V372.33s-50.42-47.87,0-75.95l0,0a39,39,0,0,0,4.58.29C350,296.66,368,277.92,368,254.8S350,212.95,327.8,212.95Z"/><path class="cls-3" d="M327.8,213.45l-2.64.14-1.32.07c-.44,0-.87.13-1.31.2l-2.61.41c-.86.2-1.7.45-2.56.67l-1.28.34c-.42.14-.82.31-1.24.46l-2.47.94L310,217.86l-1.18.59-1.12.71c-.74.48-1.5.93-2.23,1.42l-2.09,1.62c-.34.28-.71.52-1,.83l-1,.91c-.63.61-1.3,1.19-1.9,1.84a42.71,42.71,0,0,0-3.35,4.08c-.5.73-1.06,1.41-1.51,2.17l-1.33,2.28a20.73,20.73,0,0,0-1.19,2.36c-.35.81-.78,1.59-1.07,2.42a42.32,42.32,0,0,0-1.6,5c-.2.86-.45,1.71-.61,2.57l-.38,2.62-.19,1.31-.06,1.32-.13,2.64a42.46,42.46,0,0,0,5,20.33l1,1.83-1.71-1.18h0l.68-.1a89.63,89.63,0,0,0-8.2,13.56A98.79,98.79,0,0,0,279,303.76a78.61,78.61,0,0,0-3.28,31.34,71,71,0,0,0,10.39,29.68,100.11,100.11,0,0,0,21,23.63l-.32-.12h16.45l-.5.5V372.33h0l.16.36a83.7,83.7,0,0,1-15-17.61,54.41,54.41,0,0,1-8.53-21.78,32.85,32.85,0,0,1,.46-12,32,32,0,0,1,4.87-11C309.42,303.82,316,299.14,323,296h0l0,.85,0,0-1.65-1.14,2,.23a39.3,39.3,0,0,0,4.11.28c1.37,0,2.74-.13,4.11-.19s2.71-.41,4.07-.61,2.65-.7,4-1a39.19,39.19,0,0,0,14.15-8.2A41.43,41.43,0,0,0,363.45,273a42.46,42.46,0,0,0,4-15.89,42.94,42.94,0,0,0-2.26-16.23,41.7,41.7,0,0,0-8.26-14.13A40,40,0,0,0,343.77,217,38.12,38.12,0,0,0,327.8,213.45Zm0-1a39.13,39.13,0,0,1,16.38,3.6,41,41,0,0,1,13.45,10,42.7,42.7,0,0,1,8.46,14.47,43.94,43.94,0,0,1,2.31,16.6,43.46,43.46,0,0,1-4.06,16.26,42.43,42.43,0,0,1-10,13.47,40.19,40.19,0,0,1-14.51,8.41c-1.36.35-2.72.75-4.09,1.07s-2.78.48-4.18.62-2.81.17-4.22.2a40.3,40.3,0,0,1-4.21-.29l.34-.91,0,0,.58.4-.62.44h0c-5.91,4.9-11.41,10-15,16l-1.27,2.28c-.36.79-.67,1.59-1,2.38l-.27.59-.2.61-.39,1.22c-.12.41-.29.81-.38,1.22l-.26,1.26-.26,1.25c-.07.42-.09.85-.14,1.28a19.23,19.23,0,0,0-.24,2.56c0,.86-.1,1.72,0,2.59s.09,1.74.19,2.61c.81,7,3.51,13.89,7,20.43A129.83,129.83,0,0,0,323.59,372l.16.2v.16h0v17H306.61l-.14-.12a101.11,101.11,0,0,1-21.24-23.87,72,72,0,0,1-10.54-30.09A79.61,79.61,0,0,1,278,303.46a99.8,99.8,0,0,1,6-14.88,90.48,90.48,0,0,1,8.31-13.73l.28-.38.4.27h0l-.73.65a43.46,43.46,0,0,1-5.15-20.81l.13-2.7.07-1.35.19-1.34.39-2.68c.17-.89.42-1.76.63-2.63a43.33,43.33,0,0,1,1.64-5.16c.3-.85.74-1.65,1.1-2.47a21.47,21.47,0,0,1,1.21-2.42l1.37-2.34c.46-.78,1-1.48,1.55-2.22a43.69,43.69,0,0,1,3.44-4.18c.61-.66,1.3-1.25,1.95-1.88l1-.93c.33-.31.7-.56,1.05-.85l2.14-1.66c.75-.5,1.52-1,2.28-1.46l1.15-.72,1.21-.61,2.43-1.21,2.53-1c.42-.16.84-.33,1.27-.47l1.31-.35c.87-.23,1.74-.48,2.62-.69l2.68-.43c.45-.07.89-.15,1.34-.2l1.35-.07Z"/><path class="cls-2" d="M621,212.95c22.21,0,40.22,18.74,40.22,41.86a43,43,0,0,1-5.1,20.37h0s48.5,61.62-14.13,113.63H625.55V372.33s50.42-47.87,0-75.95l0,0a39,39,0,0,1-4.58.29c-22.21,0-40.22-18.74-40.22-41.86S598.78,212.95,621,212.95Z"/><path class="cls-3" d="M621,212.45l2.71.14,1.35.07c.45,0,.89.14,1.34.2l2.68.43c.88.21,1.75.46,2.62.69l1.31.35c.43.14.85.32,1.27.47l2.53,1,2.43,1.21,1.21.61,1.15.72c.76.49,1.53,1,2.28,1.46l2.14,1.66c.35.28.73.54,1.05.85l1,.93c.65.63,1.33,1.22,1.95,1.88a43.71,43.71,0,0,1,3.44,4.18c.51.74,1.09,1.44,1.55,2.22l1.37,2.34a21.46,21.46,0,0,1,1.21,2.42c.36.83.8,1.62,1.1,2.47a43.31,43.31,0,0,1,1.64,5.16c.21.88.46,1.75.63,2.63l.39,2.68.19,1.34.07,1.35.13,2.7a43.46,43.46,0,0,1-5.15,20.81l-.73-.65h0l.4-.27.28.38a90.47,90.47,0,0,1,8.31,13.73,99.78,99.78,0,0,1,6,14.88,79.61,79.61,0,0,1,3.32,31.74,72,72,0,0,1-10.54,30.09,101.11,101.11,0,0,1-21.24,23.87l-.14.12H625.05v-17h0v-.15l.16-.21a141.94,141.94,0,0,0,12.2-19c.44-.81.86-1.64,1.25-2.47s.8-1.66,1.14-2.5q1.14-2.49,2-5c.27-.86.61-1.7.83-2.56l.7-2.58.58-2.59.38-2.6c.11-.87.12-1.73.19-2.59s0-1.72,0-2.58a19.05,19.05,0,0,0-.17-2.55c0-.42-.07-.85-.14-1.27l-.26-1.25a30.11,30.11,0,0,0-3.69-9.55c-3.54-6.06-9-11.16-14.94-16.05h0l-.62-.44.58-.4,0,0,.34.91a40.3,40.3,0,0,1-4.21.29c-1.41,0-2.81-.13-4.22-.2s-2.78-.42-4.18-.62-2.72-.71-4.09-1.07a40.19,40.19,0,0,1-14.51-8.41,42.43,42.43,0,0,1-10-13.47,43.46,43.46,0,0,1-4.06-16.26,43.94,43.94,0,0,1,2.31-16.6A42.7,42.7,0,0,1,591.15,226a41,41,0,0,1,13.45-10A39.13,39.13,0,0,1,621,212.45Zm0,1a38.12,38.12,0,0,0-16,3.5,40,40,0,0,0-13.12,9.76,41.7,41.7,0,0,0-8.26,14.13,42.94,42.94,0,0,0-2.26,16.23,42.46,42.46,0,0,0,4,15.89,41.43,41.43,0,0,0,9.75,13.15,39.19,39.19,0,0,0,14.15,8.2c1.33.34,2.65.73,4,1s2.71.47,4.07.61,2.74.17,4.11.19a39.3,39.3,0,0,0,4.11-.28l2-.23-1.65,1.14,0,0,0-.85h0c1.73.84,3.49,1.66,5.17,2.64l2.48,1.54,1.24.78c.4.29.77.6,1.16.9l2.31,1.83,2.14,2.05c.35.35.73.68,1.06,1l1,1.14,1,1.15a9.54,9.54,0,0,1,.92,1.19,31.92,31.92,0,0,1,5.46,23.11,47.49,47.49,0,0,1-3.16,11.48c-.34.93-.78,1.81-1.17,2.71s-.84,1.78-1.3,2.64-.94,1.72-1.45,2.55-1,1.68-1.54,2.49A80.64,80.64,0,0,1,625.9,372.7l.16-.36h0v16.45l-.5-.5H642l-.32.12a100.11,100.11,0,0,0,21-23.63,71,71,0,0,0,10.39-29.68,78.61,78.61,0,0,0-3.28-31.34A98.79,98.79,0,0,0,663.94,289a89.63,89.63,0,0,0-8.2-13.56l.68.1h0l-1.71,1.18,1-1.83a42.46,42.46,0,0,0,5-20.33l-.13-2.64-.06-1.32-.19-1.31-.38-2.62c-.17-.87-.41-1.71-.61-2.57a42.33,42.33,0,0,0-1.6-5c-.3-.83-.72-1.61-1.07-2.42a20.71,20.71,0,0,0-1.19-2.36L654.13,232c-.45-.76-1-1.44-1.51-2.17a42.71,42.71,0,0,0-3.35-4.08c-.6-.65-1.27-1.22-1.9-1.84l-1-.91c-.32-.3-.69-.55-1-.83l-2.09-1.62c-.73-.49-1.49-.95-2.23-1.42l-1.12-.71-1.18-.59-2.36-1.18-2.47-.94c-.41-.15-.82-.32-1.24-.46l-1.28-.34c-.85-.22-1.7-.47-2.56-.67l-2.61-.41c-.44-.06-.87-.15-1.31-.2l-1.32-.07Z"/><path class="cls-4" d="M407.1,403.12v11.15l-11.68,6.9v11.15l11.68,10.61v9.55l-5.84,6.37v11.68l1.16,4.63v5l-1.16,4.18v7.82l5.84,4.92V513H395.42v10.08h-4.78v18S357.71,556,357.51,572.95c-.13,11.35,0,10.61,0,10.61s3.29,8,10.52,9,78.88,0,78.88,0l5.31-6.37V544.29l-7.43-6.9.53-134.27Z"/><path class="cls-5" d="M407.45,403.47c.09,3.64.15,7.19.15,10.79v.29l-.25.14-11.68,6.9.25-.43v11.15l-.16-.37h0l12,10.28.3.26v.45h0l.08,9.55v.39l-.28.31h0l-6,6.2.21-.53h0c.08,3.89,0,7.78.06,11.68l0-.2,1,4.66,0,.1v.07l0,5v.1l0,.09h0l-1.33,4.13,0-.13h0v7.82l-.18-.38,5.84,4.92.18.15v16.65H395.42l.5-.5v10.58h-5.28l.5-.5v18.37l-.29.13h0a113.12,113.12,0,0,0-12.79,6.93,76.27,76.27,0,0,0-11.61,8.76,39.71,39.71,0,0,0-4.85,5.4,21.94,21.94,0,0,0-3.34,6.4,14.61,14.61,0,0,0-.62,3.56l-.08,3.65c0,2.43-.13,4.9,0,7.29h0a19.14,19.14,0,0,0,3.2,4.85,13.48,13.48,0,0,0,4.67,3.41,10.53,10.53,0,0,0,2.8.77c1,.12,1.94.16,2.91.2,1.94.08,3.89.13,5.83.16,7.78.12,15.55.1,23.33.08q23.33-.1,46.66-.45h0l5.31-6.37h0V544.29h0l-7.43-6.9h0l.53-134.27h0C432.56,403.29,420,403.44,407.45,403.47Zm-.71-.71c12.94,0,25.84.18,38.57.35h0l-.53,134.27h0l7.43,6.9h0v41.93h0l-5.31,6.37h0q-23.33.33-46.66.45c-7.78,0-15.55,0-23.33-.08-1.94,0-3.89-.08-5.83-.16-1,0-1.94-.08-2.91-.2a10.54,10.54,0,0,1-2.8-.77,13.49,13.49,0,0,1-4.67-3.42,18.81,18.81,0,0,1-3.19-4.86h0c-.14-2.39-.09-4.86-.11-7.29,0-1.22,0-2.44,0-3.66A14.86,14.86,0,0,1,358,569a22.28,22.28,0,0,1,3.29-6.56,40.16,40.16,0,0,1,4.82-5.54,76.89,76.89,0,0,1,11.56-9,113.91,113.91,0,0,1,12.79-7.2h0l-.29.46V522.56h5.28l-.5.5V512.48H407.1l-.5.5V497.05l.18.38-5.84-4.92-.18-.15v-8.05h0v0l0-.09,1-4.23h0l0,.18,0-5,0,.17-1.3-4.59,0-.09v-.11c0-3.89,0-7.78.06-11.68h0v-.28l.21-.25,5.65-6.54h0l-.27.7.08-9.55h0l.31.7-11.37-10.95h0l-.16-.15V420.87l.25-.15,11.68-6.9-.25.43C406.59,410.43,406.66,406.56,406.74,402.76Z"/><path class="cls-4" d="M538.77,403.12v11.15l11.68,6.9v11.15l-11.68,10.61v9.55l5.84,6.37v11.68l-1.16,4.63v5l1.16,4.18v7.82l-5.84,4.92V513h11.68v10.08h4.78v18s33.09,14.86,33.14,31.84c0,11.13,0,10.61,0,10.61s-3.29,8-10.52,9-78.88,0-78.88,0l-5.31-6.37V544.29l7.43-6.9-.53-134.27Z"/><path class="cls-5" d="M538.95,402.94l.22,11.32-.19-.34h0l11.73,6.81.24.14v.29h0l-.08,11.14v.19l-.14.12h0L539.3,443.51l.26-.59h0v9.55l-.2-.53h0l5.95,6.27.24.25v.38h0l-.08,11.67v.11l0,.1-1.19,4.62,0-.2-.08,5,0-.2h0l1.27,4.15,0,.09v.14h0l0,7.82v.39l-.29.24h0l-5.94,4.8.24-.51h0V513l-.66-.66h0l11.67.09H551V513h0l0,10.08-.6-.6h0l4.77.25.37,0,0,.33h0l.13,18-.28-.44h0a113.64,113.64,0,0,1,12.8,7.18,77,77,0,0,1,11.57,9,39.66,39.66,0,0,1,4.82,5.54,21.8,21.8,0,0,1,3.26,6.56c.08.3.17.59.24.89l.15.91a12.26,12.26,0,0,1,.17,1.83c0,1.22,0,2.44,0,3.66l-.07,7.31h0a16.23,16.23,0,0,1-7.86,8.27c-.45.19-.92.33-1.37.48s-.95.22-1.43.28c-1,.08-1.94.18-2.91.2-1.94.09-3.89.13-5.83.16-7.78.12-15.55.1-23.33.08q-23.33-.1-46.66-.45h0l-5.3-6.36h0V544.29h0l7.43-6.9h0l-.53-134.27h0Zm-.35.35-38-.18h0l.53,134.27h0l-7.43,6.9h0v41.92h0l5.3,6.36h0q23.33.33,46.66.45c7.78,0,15.55,0,23.33-.08,1.94,0,3.89-.07,5.83-.16,1,0,1.94-.12,2.91-.2.48-.06,1-.19,1.43-.28s.93-.3,1.37-.48a16.23,16.23,0,0,0,7.86-8.27h0l-.05-7.31c0-1.22,0-2.44-.06-3.65a12.06,12.06,0,0,0-.19-1.8l-.17-.89c-.07-.29-.17-.58-.25-.87a21.5,21.5,0,0,0-3.32-6.42,39.24,39.24,0,0,0-4.86-5.4,76.38,76.38,0,0,0-11.62-8.75A112.9,112.9,0,0,0,555,541.54h0l-.29-.13v-.31l.13-18h0l.35.35-4.77.25h-.61v-.6l0-10.08h0l.58.58-11.67.09h-.67V497.06h0v-.29l.24-.21,5.74-5h0l-.29.63,0-7.82h0l0,.23-1-4.21h0l0-.09v-.11l-.08-5v-.09l0-.11,1.13-4.64,0,.21-.08-11.67h0l.24.63L538.19,453h0l-.2-.22v-9.86h0v-.37l.25-.22L550.16,432h0l-.14.31-.08-11.14h0l.24.43-11.62-7h0l-.2-.12v-.22Z"/><circle class="cls-6" cx="579.59" cy="515.89" r="20.27"/><text class="cls-7" transform="translate(571.11 525.98)">R</text><path class="cls-5" d="M526.42,158.14c-42.1,1-80.9.31-102.44,0a51.22,51.22,0,0,1,102.44,0Z"/><circle class="cls-8" cx="474.79" cy="132.93" r="15.32"/><path class="cls-9" d="M620.62,100.83C559.25,27.51,461.56,37.37,437.38,41.14a6,6,0,0,1-6.78-4.63v0a6,6,0,0,1,4.88-7.22A254,254,0,0,1,503.13,28c52.35,6,96,28.5,126.64,65.06a6,6,0,0,1-.9,8.61h0A6,6,0,0,1,620.62,100.83Z"/><path class="cls-9" d="M588.59,108.76C544,55.49,473,62.66,455.48,65.4A4.35,4.35,0,0,1,450.55,62v0a4.35,4.35,0,0,1,3.54-5.24,184.51,184.51,0,0,1,49.16-.91c38,4.39,69.74,20.71,92,47.27a4.37,4.37,0,0,1-.65,6.26h0A4.34,4.34,0,0,1,588.59,108.76Z"/><path class="cls-9" d="M546.23,114.52C525.73,90,493.1,93.32,485,94.58A2,2,0,0,1,482.76,93h0a2,2,0,0,1,1.63-2.41,84.84,84.84,0,0,1,22.6-.42c17.49,2,32.06,9.52,42.3,21.73a2,2,0,0,1-.3,2.88h0A2,2,0,0,1,546.23,114.52Z"/><path class="cls-10" d="M612.76,243.46c-4.27,4.29-5.33,21.35,0,24.23,9.5-9.94,14.64-16.19,22.22-24.23C632.74,238.38,616.68,239.53,612.76,243.46Z"/><path class="cls-10" d="M336.17,243.46c4.27,4.29,5.33,21.35,0,24.23-9.5-9.94-14.64-16.19-22.22-24.23C316.19,238.38,332.26,239.53,336.17,243.46Z"/><path class="cls-3" d="M320,388.49c-25.34-20.82-37-39.13-36.54-60.35.53-26.68,21.57-42.9,22.47-43.58l4.22,5.58-2.11-2.79,2.12,2.79c-.19.15-19.27,15-19.7,38.22-.35,18.94,8.42,36.37,32,55.73l.92,3.94Z"/><path class="cls-3" d="M629.38,388.49c25.34-20.82,37-39.13,36.54-60.35-.53-26.68-21.57-42.9-22.47-43.58l-4.22,5.58,2.11-2.79-2.12,2.79c.19.15,19.27,15,19.7,38.22.35,18.94-9.42,36.37-33,55.73L626,389Z"/><polygon class="cls-11" points="419.11 542.16 400.36 542.16 400.36 538.16 415.11 538.16 415.11 405.08 419.11 405.08 419.11 542.16"/><path class="cls-12" d="M419.11,542.16H400.36l-2.18-4L397,536h18.11l-2.18,2.18V401.72l2.18,1.19,4,2.18h0Zm0,0V405.08h-4V538.16H400.36v4h18.75Z"/><polygon class="cls-11" points="527.91 542.16 546.66 542.16 546.66 538.16 531.91 538.16 531.91 405.08 527.91 405.08 527.91 542.16"/><path class="cls-12" d="M527.94,542.14l18.72,0h0l-.5-4,.5.5H531.41V405.08l.5.5-4-.5h0Zm0,0V405.08h0l4-1.27,1.28-.41v1.68L533,538.16l-1.09-1.09,14.75.17h1.13l-.21.91-.92,4H527.91Z"/><circle class="cls-8" cx="436.39" cy="572.91" r="7.7"/><circle class="cls-8" cx="512.39" cy="574.91" r="7.7"/></g><g id="base"><rect class="cls-13" x="357.5" y="152.82" width="235.4" height="254.27" rx="27" ry="27"/><rect class="cls-14" x="413.11" y="192.16" width="50.17" height="54.2" rx="3.96" ry="3.96"/><rect class="cls-14" x="488.18" y="192.16" width="50.17" height="54.2" rx="3.96" ry="3.96"/><circle class="cls-9" cx="474.4" cy="273.6" r="13.75"/></g><g id="Layer_8" data-name="Layer 8"><text class="cls-15" transform="translate(79.47 872.24)">Herramientas de Alta <tspan class="cls-16" x="321.63" y="0">T</tspan><tspan x="341.59" y="0">ecnologia para CERRAJE</tspan><tspan class="cls-17" x="702.77" y="0">R</tspan><tspan class="cls-18" x="723.67" y="0">OS</tspan></text></g><g id="Layer_9" data-name="Layer 9"><g class="cls-19"><use transform="translate(-164.83 607.39) scale(1.68)" xlink:href="#image"/></g><g class="cls-20"><use transform="translate(-164.83 607.87) scale(1.68)" xlink:href="#image"/></g></g><g id="Layer_7" data-name="Layer 7"><rect class="cls-8" x="472.79" y="249.85" width="4" height="152.68" rx="2" ry="2" transform="translate(145.47 798.81) rotate(-89.62)"/><g class="cls-21"><rect class="cls-8" x="473.2" y="269.06" width="4" height="152.68" rx="2" ry="2" transform="translate(126.66 818.31) rotate(-89.62)"/></g><g class="cls-22"><rect class="cls-8" x="473.07" y="288.56" width="4" height="152.68" rx="2" ry="2" transform="translate(107.04 837.56) rotate(-89.62)"/></g></g><g id="aboiert"><g id="Layer_6" data-name="Layer 6"><path class="cls-9" d="M438.24,238.84A16.3,16.3,0,0,1,422,222.55c0-14.82,5.17-21.72,16.29-21.72,3.2,0,7.85.4,11.3,3.89s5.06,9.3,5,17.85h0A16.4,16.4,0,0,1,438.24,238.84Zm0-35c-6.55,0-13.25,2.22-13.25,18.68,13.21.32,5.91.32,13.21.32a115.56,115.56,0,0,0,13.28-.33c.07-7.7-1.27-12.83-4.1-15.68C445.36,204.82,442.46,203.87,438.24,203.87Z"/></g><path class="cls-13" d="M441.66,229.39a3.46,3.46,0,1,0-6.16,2.15l-.77,6.14h6.92l-.92-6A3.44,3.44,0,0,0,441.66,229.39Z"/></g><g id="cerrado"><path class="cls-23" d="M536.13,213.34c0-.64,0-1.52-.1-3.77l0-.23c-.58-3.39-3-7.25-11.46-6.45-3.79.36-8,4.45-8.35,8a114.35,114.35,0,0,0-.68,11.54h0v.21c-5.09.26-2.9.1-8.86.1-7.29,0,0,0-13.16-.31h-3.1a16.28,16.28,0,0,0,32.57,0h-3.54l-.91,0v0h.91l.5,0h-1.41a107.58,107.58,0,0,1,.63-10.91l0-.23c.09-1.41,2.8-4.62,5.61-4.89,4.94-.48,7.71.71,8.25,3.52.11,2,.1,2.78.09,3.34,0,.41,0,.73,0,1.22l3-.23C536.12,213.89,536.13,213.64,536.13,213.34Z"/><path class="cls-13" d="M510.14,229.39a3.46,3.46,0,1,0-6.16,2.15l-.77,6.14h6.92l-.92-6A3.44,3.44,0,0,0,510.14,229.39Z"/></g></svg>