<svg xmlns="http://www.w3.org/2000/svg" viewBox="0 0 209.48 307.73"><defs><style>.cls-1{fill:#000206;}.cls-2,.cls-4{fill:none;}.cls-2{stroke:#fff;}.cls-2,.cls-4,.cls-6{stroke-miterlimit:10;}.cls-3{fill:#f03335;}.cls-4{stroke:#000206;}.cls-5{font-size:16.93px;font-family:MyriadPro-Regular, Myriad Pro;}.cls-6{stroke:#000;}.cls-7{fill:rgba(255, 207, 41);}</style></defs><title>antobot_icon</title><g id="base"><rect class="cls-1" x="47.25" y="75.42" width="117.7" height="127.14" rx="6.12" ry="6.12"/><rect class="cls-2" x="75.05" y="95.09" width="25.09" height="27.1" rx="3.96" ry="3.96"/><rect class="cls-2" x="112.59" y="95.09" width="25.09" height="27.1" rx="3.96" ry="3.96"/><circle class="cls-3" cx="105.7" cy="135.81" r="6.87"/></g><g id="Layer_4" data-name="Layer 4"><path class="cls-1" d="M32.4,105.49c-11.11,0-20.11,9.37-20.11,20.93a21.48,21.48,0,0,0,2.55,10.18h0s-24.25,30.81,7.06,56.82h8.23v-8.23s-25.21-23.94,0-38h0a19.48,19.48,0,0,0,2.29.15c11.11,0,20.11-9.37,20.11-20.93S43.51,105.49,32.4,105.49Z"/><path class="cls-1" d="M179,105.49c11.11,0,20.11,9.37,20.11,20.93a21.48,21.48,0,0,1-2.55,10.18h0s24.25,30.81-7.06,56.82h-8.23v-8.23s25.21-23.94,0-38h0a19.48,19.48,0,0,1-2.29.15c-11.11,0-20.11-9.37-20.11-20.93S167.89,105.49,179,105.49Z"/><path class="cls-1" d="M72,200.57v5.57l-5.84,3.45v5.57L72,220.47v4.78l-2.92,3.18v5.84l.58,2.31v2.49l-.58,2.09v3.91L72,247.54v8H66.21v5H63.82v9S47.4,277,47.25,285.49s0,5.31,0,5.31,1.64,4,5.26,4.51,39.44,0,39.44,0l2.65-3.18v-21l-3.72-3.45.27-67.14Z"/><path class="cls-1" d="M137.88,200.57v5.57l5.84,3.45v5.57l-5.84,5.31v4.78l2.92,3.18v5.84l-.58,2.31v2.49l.58,2.09v3.91l-2.92,2.46v8h5.84v5h2.39v9s16.42,7.43,16.57,15.92,0,5.31,0,5.31-1.64,4-5.26,4.51-39.44,0-39.44,0l-2.65-3.18v-21l3.72-3.45-.27-67.14Z"/><circle class="cls-4" cx="158.29" cy="256.96" r="10.14"/><text class="cls-5" transform="translate(154.05 262)">R</text><path class="cls-6" d="M131.71,78.08c-21.05.5-40.45.16-51.22,0a25.61,25.61,0,0,1,51.22,0Z"/><circle class="cls-7" cx="105.89" cy="65.48" r="7.66"/><path d="M178.81,49.43C148.12,12.77,99.28,17.7,87.19,19.59a3,3,0,0,1-3.39-2.31v0a3,3,0,0,1,2.44-3.61A127,127,0,0,1,120.06,13c26.17,3,48,14.25,63.32,32.53a3,3,0,0,1-.45,4.31h0A3,3,0,0,1,178.81,49.43Z"/><path d="M162.79,53.39C140.5,26.76,105,30.34,96.24,31.71A2.18,2.18,0,0,1,93.77,30h0a2.18,2.18,0,0,1,1.77-2.62,92.26,92.26,0,0,1,24.58-.45c19,2.2,34.87,10.35,46,23.63a2.19,2.19,0,0,1-.33,3.13h0A2.17,2.17,0,0,1,162.79,53.39Z"/><path d="M141.61,56.27C131.36,44,115,45.67,111,46.3a1,1,0,0,1-1.13-.77h0a1,1,0,0,1,.81-1.21,42.42,42.42,0,0,1,11.3-.21c8.74,1,16,4.76,21.15,10.87a1,1,0,0,1-.15,1.44h0A1,1,0,0,1,141.61,56.27Z"/><path class="cls-7" d="M174.88,120.75c-2.14,2.15-2.66,10.67,0,12.11,4.75-5,7.32-8.1,11.11-12.11C184.87,118.2,176.84,118.78,174.88,120.75Z"/><path class="cls-7" d="M36.58,120.75c2.14,2.15,2.66,10.67,0,12.11-4.75-5-7.32-8.1-11.11-12.11C26.59,118.2,34.63,118.78,36.58,120.75Z"/></g></svg>