<?xml version="1.0" encoding="utf-8"?>
<!-- Generator: Adobe Illustrator 21.1.0, SVG Export Plug-In . SVG Version: 6.00 Build 0)  -->
<svg version="1.1" xmlns="http://www.w3.org/2000/svg" xmlns:xlink="http://www.w3.org/1999/xlink" x="0px" y="0px"
	 viewBox="0 0 209.5 307.7" style="enable-background:new 0 0 209.5 307.7;" xml:space="preserve">
<style type="text/css">
	.st0{fill:#000206;}
	.st1{fill:none;stroke:#FFFFFF;stroke-miterlimit:10;}
	.st2{fill:#F03335;}
	.st3{font-family:'ArialMT';}
	.st4{font-size:16.93px;}
	.st5{fill:none;stroke:#000206;stroke-miterlimit:10;}
	.st6{stroke:#000000;stroke-miterlimit:10;}
</style>
<g id="Layer_1">
	<title>antobot_icon</title>
	<g id="base">
		<path class="st0" d="M53.4,75.4h105.5c3.4,0,6.1,2.7,6.1,6.1v114.9c0,3.4-2.7,6.1-6.1,6.1H53.4c-3.4,0-6.1-2.7-6.1-6.1V81.5
			C47.2,78.2,50,75.4,53.4,75.4z"/>
		<path class="st1" d="M79,95.1h17.2c2.2,0,4,1.8,4,4v19.2c0,2.2-1.8,4-4,4H79c-2.2,0-4-1.8-4-4V99C75.1,96.9,76.8,95.1,79,95.1z"/>
		<path class="st1" d="M116.5,95.1h17.2c2.2,0,4,1.8,4,4v19.2c0,2.2-1.8,4-4,4h-17.2c-2.2,0-4-1.8-4-4V99
			C112.6,96.9,114.4,95.1,116.5,95.1z"/>
		<circle class="st2" cx="105.7" cy="135.8" r="6.9"/>
	</g>
	<g id="Layer_4">
		<text transform="matrix(1 0 0 1 152.4647 263.1368)" class="st3 st4">R</text>
		<path d="M177.5,49.4C146.8,12.8,98,17.7,85.9,19.6c-1.6,0.2-3-0.8-3.4-2.3l0,0c-0.4-1.6,0.7-3.2,2.3-3.6c0.1,0,0.1,0,0.2,0
			c11.2-1.7,22.6-2,33.8-0.7c26.2,3,48,14.2,63.3,32.5c1.1,1.3,0.9,3.2-0.3,4.2c0,0-0.1,0.1-0.1,0.1l0,0
			C180.4,50.8,178.6,50.6,177.5,49.4z"/>
		<path d="M161.5,53.4c-22.3-26.6-57.8-23.1-66.5-21.7c-1.1,0.2-2.2-0.6-2.5-1.7l0,0c-0.3-1.2,0.5-2.3,1.7-2.6c0,0,0.1,0,0.1,0
			c8.1-1.2,16.4-1.4,24.6-0.5c19,2.2,34.9,10.4,46,23.6c0.8,0.9,0.7,2.3-0.3,3.1c0,0,0,0-0.1,0l0,0
			C163.6,54.4,162.2,54.3,161.5,53.4z"/>
		<path d="M140.3,56.3c-10.2-12.3-26.6-10.6-30.6-10c-0.5,0.1-1-0.3-1.1-0.8l0,0c-0.1-0.5,0.2-1.1,0.8-1.2c0,0,0,0,0.1,0
			c3.7-0.6,7.5-0.6,11.3-0.2c8.7,1,16,4.8,21.1,10.9c0.4,0.4,0.3,1.1-0.1,1.4c0,0,0,0,0,0l0,0C141.3,56.7,140.7,56.7,140.3,56.3z"/>
	</g>
</g>
<g id="Layer_4_1_">
</g>
<g id="Layer_3">
	<path class="st0" d="M32.4,105.5c-11.1,0-20.1,9.4-20.1,20.9c0,3.6,0.9,7,2.6,10.2c0,0-24.2,30.8,7.1,56.8h8.2v-8.2
		c0,0-25.2-23.9,0-38c0.8,0.1,1.5,0.1,2.3,0.1c11.1,0,20.1-9.4,20.1-20.9S43.5,105.5,32.4,105.5z M36.6,132.9
		c-4.8-5-7.3-8.1-11.1-12.1c1.1-2.5,9.2-2,11.1,0C38.7,122.9,39.2,131.4,36.6,132.9z"/>
	<path class="st0" d="M196.6,136.6c1.7-3.1,2.6-6.6,2.5-10.2c0-11.6-9-20.9-20.1-20.9s-20.1,9.4-20.1,20.9s9,20.9,20.1,20.9
		c0.8,0,1.5-0.1,2.3-0.1c25.2,14.1,0,38,0,38v8.2h8.2C220.8,167.4,196.6,136.6,196.6,136.6z M174.9,132.9c-2.7-1.4-2.1-10,0-12.1
		c2-2,10-2.5,11.1,0C182.2,124.8,179.6,127.9,174.9,132.9z"/>
	<circle class="st5" cx="158.3" cy="257" r="10.1"/>
	<path class="st6" d="M106.1,52.5c-14.1,0-25.6,11.5-25.6,25.6c10.8,0.2,30.2,0.5,51.2,0C131.7,63.9,120.2,52.5,106.1,52.5z
		 M105.9,73.1c-4.2,0-7.7-3.4-7.7-7.7c0-4.2,3.4-7.7,7.7-7.7c4.2,0,7.7,3.4,7.7,7.7C113.5,69.7,110.1,73.1,105.9,73.1z"/>
</g>
<g id="Layer_2">
	<path class="st0" d="M162.7,285.5c-0.1-8.5-16.6-15.9-16.6-15.9v-9h-2.4v-5h-5.8v-8l2.9-2.5v-3.9l-0.6-2.1v-2.5l0.6-2.3v-5.8
		l-2.9-3.2v-4.8l5.8-5.3v-5.6l-5.8-3.5v-5.6l-19.1-0.1l0.3,67.1l-3.7,3.5v21l2.6,3.2c0,0,35.8,0.5,39.4,0s5.3-4.5,5.3-4.5
		S162.8,293.9,162.7,285.5z M126.4,288.3c-2.3,0-4.1-1.8-4.1-4.1c0-2.3,1.8-4.1,4.1-4.1c2.3,0,4.1,1.8,4.1,4.1
		C130.5,286.4,128.6,288.3,126.4,288.3z"/>
	<path class="st0" d="M90.9,267.7l0.3-67.1l-19.2,0v5.6l-5.8,3.5v5.6l5.8,5.3v4.8l-2.9,3.2v5.8l0.6,2.3v2.5l-0.6,2.1v3.9l2.9,2.5v8
		h-5.8v5h-2.4v9c0,0-16.4,7.5-16.6,16s0,5.3,0,5.3s1.6,4,5.3,4.5s39.4,0,39.4,0l2.6-3.2v-21L90.9,267.7z M83.9,288.3
		c-2.3,0-4.1-1.8-4.1-4.1c0-2.3,1.8-4.1,4.1-4.1c2.3,0,4.1,1.8,4.1,4.1C88,286.4,86.1,288.3,83.9,288.3z"/>
</g>
</svg>
